<?xml version="1.0" encoding="UTF-8"?>
<!DOCTYPE svg PUBLIC "-//W3C//DTD SVG 1.1//EN" "http://www.w3.org/Graphics/SVG/1.1/DTD/svg11.dtd">
<!-- Creator: CorelDRAW -->
<svg xmlns="http://www.w3.org/2000/svg" xml:space="preserve" width="6.82666in" height="6.82666in" style="shape-rendering:geometricPrecision; text-rendering:geometricPrecision; image-rendering:optimizeQuality; fill-rule:evenodd; clip-rule:evenodd"
viewBox="0 0 6.82666 6.82666"
 xmlns:xlink="http://www.w3.org/1999/xlink">
 <defs>
  <style type="text/css">
   <![CDATA[
    .fil0 {fill:none}
    .fil1 {fill:#212121;fill-rule:nonzero}
    .fil2 {fill:#66BB6A;fill-rule:nonzero}
   ]]>
  </style>
 </defs>
 <g id="Layer_x0020_1">
  <metadata id="CorelCorpID_0Corel-Layer"/>
  <g id="_395061016">
   <rect id="_395062120" class="fil0" width="6.82666" height="6.82666"/>
   <rect id="_395061256" class="fil0" x="0.853331" y="0.853331" width="5.12" height="5.12"/>
  </g>
  <path class="fil1" d="M2.23703 1.05025c0.193189,0 0.369484,0.0741063 0.502126,0.195551 0.104772,0.0959331 0.182035,0.221205 0.218602,0.362634 0.0407087,-0.00705512 0.0812638,-0.0104646 0.121307,-0.0104646 0.151618,0 0.297,0.0485079 0.417213,0.133067 0.120142,0.0845039 0.215138,0.205197 0.266051,0.349598 0.0265,0.0751693 0.0410787,0.156232 0.0410787,0.241358 0,0.199843 -0.0810157,0.38078 -0.211988,0.511756 -0.130976,0.130972 -0.311913,0.211988 -0.511756,0.211988l-1.50259 0c-0.199843,0 -0.38078,-0.0810157 -0.511756,-0.211988 -0.130976,-0.130976 -0.211988,-0.311913 -0.211988,-0.511756 0,-0.00545669 0.000338583,-0.0159764 0.000996063,-0.0313465l0 -0.000413386c0.00833858,-0.19313 0.0923858,-0.366008 0.222724,-0.490681 0.117228,-0.112134 0.271484,-0.185181 0.441429,-0.198902 0.039126,-0.145146 0.121094,-0.272791 0.231528,-0.368524 0.130717,-0.113307 0.301,-0.181878 0.487024,-0.181878zm0.361 0.349811c-0.0947953,-0.0867913 -0.221496,-0.139756 -0.361,-0.139756 -0.134091,0 -0.256437,0.0490827 -0.35,0.130181 -0.0949291,0.0822913 -0.160559,0.197626 -0.179106,0.328193l-0.0133465 0.0939646 -0.0949606 -0.00411811c-0.00275984,-0.000114173 -0.0104134,-0.000177165 -0.0227559,-0.000177165 -0.137795,0 -0.263197,0.0539803 -0.355398,0.142177 -0.092378,0.0883661 -0.151965,0.211213 -0.157902,0.348732l-1.5748e-005 0c-0.000102362,0.00301181 -0.000161417,0.0105354 -0.000161417,0.0227362 0,0.141862 0.0574961,0.270291 0.150445,0.363244 0.0929528,0.0929488 0.221382,0.150445 0.363244,0.150445l1.50259 0c0.141862,0 0.270291,-0.0574961 0.363244,-0.150445 0.0929488,-0.0929528 0.150445,-0.221382 0.150445,-0.363244 0,-0.061378 -0.0102126,-0.11898 -0.0287677,-0.171614 -0.0360276,-0.102185 -0.1035,-0.187764 -0.188925,-0.247858 -0.0853701,-0.0600472 -0.18872,-0.0944961 -0.296594,-0.0944961 -0.0564488,0 -0.113874,0.00933071 -0.170311,0.0292283l-0.127736 0.0450394 -0.0117559 -0.134886c-0.0119764,-0.137449 -0.0756063,-0.259783 -0.171232,-0.347346z"/>
  <g id="_395060800">
   <path id="_395061160" class="fil1" d="M2.80287 3.25579l2.77005 0c0.0760433,0 0.144622,0.0341535 0.193843,0.0891614 0.0464449,0.0519134 0.0752874,0.122528 0.0752874,0.199276l0 1.62867c0,0.0767441 -0.0288425,0.147354 -0.0752913,0.199268 -0.0492165,0.0550118 -0.117807,0.0891654 -0.193839,0.0891654l-2.77005 0c-0.0760354,0 -0.144622,-0.0341496 -0.193843,-0.0891614 -0.0464528,-0.0519134 -0.0752874,-0.12252 -0.0752874,-0.199272l0 -1.62867c0,-0.0767598 0.0288307,-0.147366 0.0752835,-0.19928 0.0492205,-0.0550079 0.117799,-0.0891575 0.193846,-0.0891575zm2.77005 0.210059l-2.77005 0c-0.0142087,0 -0.027689,0.00711811 -0.0379528,0.0185906 -0.0130315,0.014563 -0.021122,0.0356654 -0.021122,0.0597874l0 1.62867c0,0.0241102 0.00809449,0.0452165 0.021126,0.0597795 0.0102638,0.0114724 0.0237441,0.0185984 0.0379488,0.0185984l2.77005 0c0.0142008,0 0.0276772,-0.00712598 0.0379449,-0.0186024 0.0130315,-0.0145669 0.0211299,-0.0356693 0.0211299,-0.0597756l0 -1.62867c0,-0.0241102 -0.00809449,-0.0452165 -0.021126,-0.0597835 -0.0102638,-0.0114724 -0.0237441,-0.0185945 -0.0379488,-0.0185945z"/>
   <path id="_395061352" class="fil1" d="M2.50748 5.56635c-0.0580039,0 -0.105028,0.0470276 -0.105028,0.105028 0,0.0580039 0.0470236,0.105031 0.105028,0.105031l3.36082 0c0.0580039,0 0.105028,-0.0470276 0.105028,-0.105031 0,-0.058 -0.0470236,-0.105028 -0.105028,-0.105028l-3.36082 0z"/>
  </g>
  <path class="fil2" d="M1.6898 3.41257c-0.101728,0.250465 -0.145929,0.574606 -0.0247559,0.925138 0.0964331,0.27898 0.297256,0.575909 0.655764,0.868799l-0.132331 0.161976c-0.391811,-0.320098 -0.612984,-0.649531 -0.720945,-0.96185 -0.14072,-0.407079 -0.0895709,-0.783047 0.0283425,-1.07337l0.193925 0.0793031z"/>
  <polygon class="fil2" points="1.11394,3.52057 1.53769,3.19487 1.61757,3.13347 1.68226,3.21134 2.02379,3.62243 1.86252,3.75603 1.58569,3.4228 1.24181,3.68711 "/>
  <path class="fil2" d="M5.05391 2.63401c-0.068437,-0.261492 -0.227154,-0.54761 -0.53426,-0.755992 -0.24398,-0.165547 -0.582488,-0.283047 -1.04519,-0.303043l0.00902756 -0.209236c0.505287,0.0218386 0.87978,0.153429 1.1535,0.33915 0.356193,0.241689 0.540248,0.573441 0.619594,0.87661l-0.202669 0.0525118z"/>
  <polygon class="fil2" points="5.45032,2.20269 5.30587,2.71724 5.27865,2.8142 5.18075,2.79068 4.66107,2.66585 4.70948,2.46235 5.13124,2.56367 5.24848,2.14606 "/>
 </g>
</svg>
